<svg width="114" height="46" viewBox="0 0 114 46" fill="none" xmlns="http://www.w3.org/2000/svg">
<path d="M38.76 45.84C37.4267 45.84 36.0667 45.4133 34.68 44.56C33.3467 43.76 31.9867 42.4533 30.6 40.64C28.8933 38.2933 27.4533 36.0533 26.28 33.92C25.1067 31.7867 24.1467 29.92 23.4 28.32C22.7067 26.72 22.1733 25.5733 21.8 24.88C21.8 24.88 21.9333 24.72 22.2 24.4C22.4667 24.0267 22.7867 23.68 23.16 23.36C23.5867 22.9867 23.9333 22.8 24.2 22.8C26.7067 22.8 28.9467 22.7733 30.92 22.72C32.9467 22.6133 34.7333 22.2933 36.28 21.76C37.88 21.1733 39.2933 20.1867 40.52 18.8C41.7467 17.4133 42.7867 15.44 43.64 12.88C43.9067 12.24 44.0667 11.6 44.12 10.96C44.2267 10.2667 44.28 9.6 44.28 8.96C44.28 7.14666 43.8267 5.54666 42.92 4.16C42.0133 2.77333 40.7067 1.97333 39 1.76C38.7867 1.70666 38.5467 1.68 38.28 1.68C38.0133 1.68 37.7467 1.68 37.48 1.68C36.4667 1.68 35.3467 1.81333 34.12 2.08C32.9467 2.34666 32.0667 2.85333 31.48 3.6C30.1467 5.36 28.8667 7.36 27.64 9.6C26.4133 11.7867 25.24 14.0267 24.12 16.32C23 18.56 21.9333 20.6667 20.92 22.64C20.6533 23.1733 20.1467 24.1333 19.4 25.52C18.6533 26.8533 17.8267 28.4 16.92 30.16C16.0133 31.8667 15.16 33.5733 14.36 35.28C13.56 36.9867 12.92 38.5067 12.44 39.84C12.0133 41.1733 11.9067 42.08 12.12 42.56C12.1733 42.6133 12.2 42.6933 12.2 42.8C12.2 42.96 12.12 43.04 11.96 43.04C11.5333 43.04 11.1067 42.9333 10.68 42.72C10.2533 42.5067 9.74667 42.4 9.16 42.4C8.62667 42.4 8.09333 42.5333 7.56 42.8C7.02667 43.0133 6.33333 43.4133 5.48 44C4.62667 44.5867 3.66667 45.0667 2.6 45.44C2.49333 45.4933 2.33333 45.52 2.12 45.52C1.74667 45.52 1.45333 45.4133 1.24 45.2C1.02667 45.04 1.02667 44.9067 1.24 44.8C2.41333 44.5867 3.42667 44.16 4.28 43.52C5.13333 42.8267 5.82667 41.9733 6.36 40.96C7.48 39.0933 8.57333 37.2267 9.64 35.36C10.76 33.44 11.8267 31.52 12.84 29.6C14.0667 27.2533 15.32 24.9067 16.6 22.56C17.88 20.16 19.16 17.7867 20.44 15.44C21.6667 13.2533 22.76 11.1467 23.72 9.12C24.68 7.09333 25.4 5.62666 25.88 4.72C26.2533 4.02667 26.8933 3.41333 27.8 2.88C28.76 2.29333 29.6933 1.84 30.6 1.52C30.28 1.52 29.96 1.52 29.64 1.52C29.32 1.46667 28.9733 1.44 28.6 1.44C26.9467 1.44 25.1333 1.54667 23.16 1.76C21.24 1.92 19.3467 2.18666 17.48 2.56C15.6667 2.93333 14.0667 3.44 12.68 4.08C11.2933 4.72 10.36 5.49333 9.88 6.4C9.66667 6.88 9.48 7.36 9.32 7.84C9.16 8.32 9.08 8.8 9.08 9.28C9.08 10.5067 9.50667 11.3867 10.36 11.92C10.4133 11.92 10.44 11.9733 10.44 12.08C10.44 12.1867 10.3333 12.2933 10.12 12.4C9.96 12.5067 9.82667 12.5333 9.72 12.48C9.18667 12.2133 8.57333 11.5733 7.88 10.56C7.24 9.49333 6.81333 8.61333 6.6 7.92C6.44 7.28 6.36 6.69333 6.36 6.16C6.36 4.77333 6.81333 3.70667 7.72 2.96C8.62667 2.16 9.77333 1.6 11.16 1.28C12.5467 0.906665 13.96 0.693331 15.4 0.639996C16.8933 0.53333 18.2 0.479998 19.32 0.479998C21.0267 0.479998 23.0533 0.479998 25.4 0.479998C27.7467 0.426665 29.9067 0.399999 31.88 0.399999C32.36 0.399999 32.8933 0.399999 33.48 0.399999C34.0667 0.346666 34.68 0.32 35.32 0.32C36.76 0.32 38.2533 0.399999 39.8 0.559997C41.3467 0.719998 42.76 1.06666 44.04 1.6C45.32 2.13333 46.3067 2.96 47 4.08C47.9067 5.57333 48.36 7.28 48.36 9.2C48.36 12.1333 47.5867 14.5867 46.04 16.56C45.5067 17.2533 44.92 17.92 44.28 18.56C43.64 19.2 42.8933 19.8133 42.04 20.4C40.6533 21.36 39 22.1867 37.08 22.88C35.16 23.52 33.16 24 31.08 24.32C29.0533 24.64 27.1867 24.8533 25.48 24.96C26.1733 26.4533 27.2133 28.4533 28.6 30.96C30.04 33.4667 31.7733 35.9733 33.8 38.48C34.8667 39.8133 35.96 40.7467 37.08 41.28C38.2 41.8133 39.2933 42.08 40.36 42.08C42.0667 42.08 43.6667 41.5733 45.16 40.56C46.7067 39.5467 48.0933 38.3733 49.32 37.04C50.6 35.6533 51.6133 34.4533 52.36 33.44C52.52 33.1733 52.6533 33.04 52.76 33.04C52.92 33.04 53 33.2 53 33.52C53 33.9467 52.84 34.3733 52.52 34.8C50.0667 38.16 47.72 40.8533 45.48 42.88C43.24 44.8533 41 45.84 38.76 45.84ZM53.125 44.16C52.2717 44.16 51.4983 44 50.805 43.68C50.165 43.3067 49.845 42.5333 49.845 41.36C49.845 39.4933 50.325 37.6267 51.285 35.76C52.245 33.84 53.2317 32.16 54.245 30.72C55.1517 29.4933 56.165 28.3467 57.285 27.28C58.4583 26.16 59.7117 25.2 61.045 24.4C61.8983 23.8667 63.045 23.3067 64.485 22.72C65.9783 22.08 67.2317 21.76 68.245 21.76C69.0983 21.76 69.845 22 70.485 22.48C71.125 22.9067 71.445 23.7067 71.445 24.88C71.445 26.6933 70.965 28.56 70.005 30.48C69.0983 32.3467 68.1383 34 67.125 35.44C66.645 36.08 66.165 36.6933 65.685 37.28C65.205 37.8133 64.6717 38.3733 64.085 38.96C66.0583 38.96 67.8717 38.4 69.525 37.28C71.1783 36.1067 72.6183 34.6933 73.845 33.04L74.005 32.88C74.165 32.88 74.245 33.04 74.245 33.36C74.245 33.7333 74.1383 34.08 73.925 34.4C72.8583 35.8933 71.525 37.2267 69.925 38.4C68.325 39.52 66.5117 40.08 64.485 40.08C64.2717 40.08 64.0583 40.08 63.845 40.08C63.6317 40.08 63.4183 40.0533 63.205 40C60.2183 42.7733 56.8583 44.16 53.125 44.16ZM55.205 42.8C55.9517 42.8 56.7517 42.5333 57.605 42C58.5117 41.4667 59.205 40.96 59.685 40.48C60.5917 39.5733 61.4183 38.6133 62.165 37.6C62.9117 36.5333 63.605 35.4667 64.245 34.4C64.9917 33.12 65.7383 31.6 66.485 29.84C67.2317 28.08 67.605 26.4267 67.605 24.88C67.605 23.6533 67.1783 23.04 66.325 23.04C65.6317 23.04 64.7783 23.3333 63.765 23.92C62.805 24.5067 62.085 25.04 61.605 25.52C59.7917 27.3867 58.2717 29.4133 57.045 31.6C56.3517 32.8267 55.605 34.2667 54.805 35.92C54.005 37.5733 53.605 39.0933 53.605 40.48C53.605 40.6933 53.605 40.9067 53.605 41.12C53.6583 41.28 53.7117 41.4667 53.765 41.68C53.9783 42.4267 54.4583 42.8 55.205 42.8ZM77.8169 45.28C76.8569 45.28 75.8435 45.1467 74.7769 44.88C73.7102 44.6133 72.7502 44.1867 71.8969 43.6C71.0969 42.96 70.5635 42.1067 70.2969 41.04C70.2435 40.88 70.2169 40.64 70.2169 40.32C70.2169 39.5733 70.3769 38.7467 70.6969 37.84C71.0702 36.9333 71.5235 36.2933 72.0569 35.92C72.2702 35.8133 72.4302 35.8133 72.5369 35.92C72.6969 36.0267 72.7235 36.1333 72.6169 36.24C72.5635 36.4 72.4835 36.6133 72.3769 36.88C72.2702 37.0933 72.1902 37.3333 72.1369 37.6C71.9769 38.9867 72.2702 40.2133 73.0169 41.28C73.3369 41.7067 73.7102 42.1067 74.1369 42.48C74.6169 42.8533 75.0702 43.1733 75.4969 43.44C75.8702 43.6533 76.3235 43.8133 76.8569 43.92C77.3902 43.9733 77.9235 44 78.4569 44C79.3102 44 80.1369 43.8933 80.9369 43.68C81.7369 43.4667 82.3235 43.12 82.6969 42.64C83.3902 41.7867 83.7369 40.8267 83.7369 39.76C83.7369 38.96 83.5235 38.1067 83.0969 37.2C82.6702 36.2933 82.0035 35.3333 81.0969 34.32C80.5102 33.68 79.9502 32.9867 79.4169 32.24C78.8835 31.4933 78.5369 30.6933 78.3769 29.84C78.3235 29.68 78.2702 29.52 78.2169 29.36C78.2169 29.2 78.2169 29.04 78.2169 28.88C77.5235 29.8933 76.8035 30.8533 76.0569 31.76C75.3635 32.6133 74.7502 33.36 74.2169 34C74.0035 34.32 73.8169 34.48 73.6569 34.48C73.5502 34.48 73.4969 34.3733 73.4969 34.16C73.4969 33.68 73.7102 33.1733 74.1369 32.64C74.5635 32.16 75.0435 31.5733 75.5769 30.88C76.1102 30.1333 76.5369 29.5467 76.8569 29.12C77.7635 27.7867 78.4302 26.7467 78.8569 26C79.3369 25.2 79.8435 24.48 80.3769 23.84C80.9635 23.1467 81.6835 22.5867 82.5369 22.16C83.4435 21.7333 84.3769 21.52 85.3369 21.52C86.4569 21.52 87.4702 21.7067 88.3769 22.08C89.3369 22.4 89.8435 23.2533 89.8969 24.64C89.8969 25.28 89.7635 25.9467 89.4969 26.64C89.2835 27.28 89.0435 27.8933 88.7769 28.48C88.6169 28.8 88.3769 29.04 88.0569 29.2C87.7902 29.3067 87.6569 29.2533 87.6569 29.04C87.6569 28.8267 87.6835 28.5867 87.7369 28.32C87.7902 28.0533 87.8169 27.8133 87.8169 27.6C87.8169 26.6933 87.6569 25.8933 87.3369 25.2C87.0702 24.4533 86.6702 23.92 86.1369 23.6C85.6035 23.2267 85.0435 23.04 84.4569 23.04C83.6035 23.04 82.7769 23.3867 81.9769 24.08C81.1769 24.72 80.7769 25.5733 80.7769 26.64C80.7769 26.7467 80.7769 26.88 80.7769 27.04C80.7769 27.2 80.8035 27.3333 80.8569 27.44C81.0702 28.2933 81.7102 29.2533 82.7769 30.32C83.8435 31.3867 84.6702 32.32 85.2569 33.12C86.2702 34.5067 86.7769 35.92 86.7769 37.36C86.7769 38.8 86.3502 40.1333 85.4969 41.36C84.6969 42.5333 83.6035 43.4667 82.2169 44.16C80.8835 44.9067 79.4169 45.28 77.8169 45.28ZM96.1706 44.64C93.984 44.64 92.464 44.2133 91.6106 43.36C90.7573 42.5067 90.3306 41.4667 90.3306 40.24C90.3306 38.6933 90.7306 37.04 91.5306 35.28C92.384 33.52 93.184 32.0267 93.9306 30.8C94.784 29.52 95.9306 28.1867 97.3706 26.8C98.8106 25.4133 100.384 24.24 102.091 23.28C103.797 22.32 105.451 21.84 107.051 21.84C108.437 21.84 109.397 22.1867 109.931 22.88C110.464 23.52 110.731 24.2933 110.731 25.2C110.731 26.8533 110.224 28.2133 109.211 29.28C108.251 30.3467 107.051 31.2267 105.611 31.92C104.171 32.56 102.784 33.0933 101.451 33.52C100.651 33.7333 99.7173 33.9467 98.6506 34.16C97.584 34.3733 96.5706 34.48 95.6106 34.48C95.2373 35.44 94.944 36.3733 94.7306 37.28C94.5173 38.1867 94.4106 39.0133 94.4106 39.76C94.4106 40.6667 94.624 41.4133 95.0506 42C95.5306 42.5867 96.304 42.88 97.3706 42.88C97.7973 42.88 98.304 42.8267 98.8906 42.72C99.4773 42.6133 100.117 42.4533 100.811 42.24C102.411 41.7067 103.984 40.8533 105.531 39.68C107.077 38.5067 108.491 37.2533 109.771 35.92C111.104 34.5333 112.117 33.3867 112.811 32.48C112.971 32.64 113.051 32.8267 113.051 33.04C113.051 33.3067 112.864 33.7333 112.491 34.32C111.424 35.8133 110.037 37.36 108.331 38.96C106.624 40.56 104.731 41.92 102.651 43.04C100.571 44.1067 98.4106 44.64 96.1706 44.64ZM96.2506 32.88C96.944 32.9333 97.7173 32.9333 98.5706 32.88C99.4773 32.7733 100.357 32.5867 101.211 32.32C103.397 31.68 104.971 30.6667 105.931 29.28C106.944 27.84 107.451 26.56 107.451 25.44C107.451 24.8 107.317 24.2667 107.051 23.84C106.784 23.4133 106.357 23.2 105.771 23.2C104.224 23.2 102.837 23.7867 101.611 24.96C100.384 26.08 99.3173 27.3867 98.4106 28.88C97.504 30.3733 96.784 31.7067 96.2506 32.88ZM103.051 17.6C102.997 17.6 102.944 17.52 102.891 17.36C102.837 17.1467 102.837 16.9867 102.891 16.88C103.957 16.0267 105.157 15.0667 106.491 14C107.877 12.88 109.291 11.7067 110.731 10.48C111.477 9.78667 112.037 9.33333 112.411 9.12C112.784 8.90666 113.077 8.8 113.291 8.8C113.451 8.8 113.531 9.04 113.531 9.52C113.531 9.84 113.504 10.1867 113.451 10.56C113.397 10.9333 113.317 11.1733 113.211 11.28C112.784 11.76 111.957 12.4 110.731 13.2C109.557 13.9467 108.251 14.72 106.811 15.52C105.371 16.32 104.117 17.0133 103.051 17.6Z" fill="#D47318"/>
</svg>
